<svg xmlns="http://www.w3.org/2000/svg" width="200" height="200"><defs><marker orient="auto" refY="0" refX="0" id="b" style="overflow:visible"><path d="m0 0 5-5-17.5 5L5 5 0 0z" style="fill-rule:evenodd;stroke:#000;stroke-width:1pt;stroke-opacity:1;fill:#000;fill-opacity:1" transform="matrix(-.4 0 0 -.4 -4 0)"/></marker><marker orient="auto" refY="0" refX="0" id="a" style="overflow:visible"><path d="m0 0 5-5-17.5 5L5 5 0 0z" style="fill-rule:evenodd;stroke:#000;stroke-width:1pt;stroke-opacity:1;fill:#000;fill-opacity:1" transform="matrix(-.4 0 0 -.4 -4 0)"/></marker></defs><path d="m0 150 100-50L0 200z" style="fill:#de87cd;stroke:none;stroke-width:1px;stroke-linecap:butt;stroke-linejoin:miter;stroke-opacity:1"/><path d="M100 100 0 200h50.02z" style="fill:#afafe9;stroke:none;stroke-width:1px;stroke-linecap:butt;stroke-linejoin:miter;stroke-opacity:1"/><path style="fill:#93ac9d;stroke:none;stroke-width:1px;stroke-linecap:butt;stroke-linejoin:miter;stroke-opacity:1" d="M100 100 200 0v200h-50z"/><path d="M100 100 200 0H0v50z" style="fill:#deaa87;stroke:none;stroke-width:1px;stroke-linecap:butt;stroke-linejoin:miter;stroke-opacity:1"/><rect style="fill:#4d4d4d;fill-opacity:1;stroke:none;stroke-width:2;stroke-linecap:round;stroke-linejoin:bevel;stroke-miterlimit:4;stroke-dasharray:none;stroke-dashoffset:0;stroke-opacity:1" width="91.684" height="41.647" x="106.366" y="9.74" ry="7.492"/><path d="M100 200V0" style="fill:none;stroke:#000;stroke-width:1px;stroke-linecap:butt;stroke-linejoin:miter;stroke-opacity:1;marker-end:url(#a)"/><path style="fill:none;stroke:#000;stroke-width:1px;stroke-linecap:butt;stroke-linejoin:miter;stroke-opacity:1;marker-end:url(#b)" d="M0 100h200"/><g style="font-style:normal;font-weight:400;font-size:29.33333397px;line-height:1.25;font-family:sans-serif;letter-spacing:0;word-spacing:0;fill:#fff;fill-opacity:1;stroke:none" aria-label="2"><path d="M82.021 41.627h10.098v2.435H78.54v-2.435q1.647-1.704 4.483-4.569 2.85-2.879 3.58-3.71 1.39-1.56 1.934-2.635.559-1.089.559-2.134 0-1.705-1.204-2.779-1.188-1.074-3.108-1.074-1.36 0-2.879.473-1.503.472-3.222 1.432v-2.922q1.747-.702 3.265-1.06 1.519-.358 2.78-.358 3.322 0 5.299 1.662 1.976 1.661 1.976 4.44 0 1.317-.501 2.506-.487 1.175-1.79 2.779-.359.415-2.278 2.406-1.92 1.977-5.414 5.543z"/></g><g style="font-style:normal;font-weight:400;font-size:29.33333397px;line-height:1.25;font-family:sans-serif;letter-spacing:0;word-spacing:0;fill:#fff;fill-opacity:1;stroke:none" aria-label="3"><path d="M166.706 119.149q2.076.444 3.237 1.848 1.174 1.403 1.174 3.466 0 3.165-2.177 4.898-2.177 1.733-6.187 1.733-1.347 0-2.78-.272-1.417-.258-2.935-.788v-2.793q1.203.702 2.635 1.06 1.432.358 2.994.358 2.72 0 4.139-1.074 1.432-1.074 1.432-3.122 0-1.89-1.332-2.95-1.318-1.075-3.68-1.075h-2.493v-2.378h2.607q2.134 0 3.265-.845 1.132-.859 1.132-2.463 0-1.647-1.175-2.521-1.16-.888-3.337-.888-1.189 0-2.55.258-1.36.258-2.993.802v-2.578q1.647-.459 3.08-.688 1.446-.229 2.721-.229 3.294 0 5.214 1.504 1.919 1.49 1.919 4.04 0 1.775-1.017 3.007-1.017 1.217-2.893 1.69z"/></g><path d="M61.607 100a38.393 38.393 0 0 1 4.224-17.507M100 138.393a38.393 38.393 0 0 0 16.805-3.874" style="fill:none;fill-opacity:1;stroke:purple;stroke-width:1;stroke-linecap:round;stroke-linejoin:bevel;stroke-miterlimit:4;stroke-dasharray:none;stroke-dashoffset:0;stroke-opacity:1"/><g style="font-style:normal;font-weight:400;font-size:21.23579216px;line-height:1.25;font-family:sans-serif;letter-spacing:0;word-spacing:0;fill:purple;fill-opacity:1;stroke:none;stroke-width:1" aria-label="β"><path style="stroke-width:1" d="M44.598 90.66v5.133h-1.919V79.835q0-4.728 4.418-4.728 4.5 0 4.5 3.992 0 2.841-1.784 3.878 2.904.933 2.904 3.702 0 4.915-4.998 4.915-2.199 0-3.121-.934zm0-2.488q1.15 1.794 3.193 1.794 2.987 0 2.987-3.256 0-2.924-4.812-2.696V82.25q3.764 0 3.764-3.318 0-2.27-2.426-2.27-2.706 0-2.706 3.234z"/></g><g style="font-style:normal;font-weight:400;font-size:21.23579216px;line-height:1.25;font-family:sans-serif;letter-spacing:0;word-spacing:0;fill:purple;fill-opacity:1;stroke:none;stroke-width:1" aria-label="β"><path style="stroke-width:1" d="M107.195 156.561v5.133h-1.918v-15.958q0-4.728 4.417-4.728 4.5 0 4.5 3.992 0 2.841-1.783 3.878 2.903.933 2.903 3.702 0 4.915-4.998 4.915-2.198 0-3.12-.934zm0-2.488q1.151 1.794 3.194 1.794 2.986 0 2.986-3.256 0-2.924-4.81-2.696v-1.763q3.763 0 3.763-3.318 0-2.27-2.426-2.27-2.707 0-2.707 3.234z"/></g><rect ry="7.492" y="7.343" x="103.369" height="41.647" width="91.684" style="fill:#ccc;fill-opacity:1;stroke:none;stroke-width:2;stroke-linecap:round;stroke-linejoin:bevel;stroke-miterlimit:4;stroke-dasharray:none;stroke-dashoffset:0;stroke-opacity:1"/><g style="font-style:normal;font-weight:400;font-size:13.88268471px;line-height:1.25;font-family:sans-serif;letter-spacing:0;word-spacing:0;fill:#00f;fill-opacity:1;stroke:none;stroke-width:1" aria-label="THRESHOLD"><path style="fill:#00f;stroke-width:1" d="M106.783 13.061h8.562v1.153h-3.593v8.968h-1.376v-8.968h-3.593zM116.666 13.061h1.37v4.149h4.975v-4.149h1.37v10.121h-1.37v-4.82h-4.975v4.82h-1.37zM131.905 18.437q.44.15.854.637.42.488.84 1.342l1.39 2.766h-1.47l-1.295-2.596q-.502-1.017-.977-1.35-.467-.331-1.28-.331h-1.492v4.277h-1.37v-10.12h3.092q1.735 0 2.59.725.853.725.853 2.19 0 .955-.447 1.586-.44.63-1.288.874zm-3.43-4.25v3.592h1.722q.99 0 1.491-.454.508-.46.508-1.349 0-.888-.508-1.335-.502-.454-1.491-.454zM136.752 13.061h6.399v1.153h-5.03v2.996h4.82v1.152h-4.82v3.668h5.152v1.152h-6.521zM151.59 13.394v1.335q-.78-.373-1.47-.556-.692-.183-1.336-.183-1.119 0-1.729.434-.603.434-.603 1.234 0 .67.4 1.016.407.34 1.532.55l.827.169q1.532.292 2.257 1.03.732.732.732 1.966 0 1.471-.99 2.23-.982.76-2.887.76-.719 0-1.532-.163-.807-.163-1.674-.481v-1.41q.833.467 1.633.705.8.237 1.573.237 1.173 0 1.81-.461t.637-1.315q0-.746-.461-1.166-.454-.42-1.498-.63l-.834-.163q-1.532-.305-2.217-.956-.684-.65-.684-1.81 0-1.342.942-2.115.95-.773 2.61-.773.712 0 1.45.13.74.128 1.512.386zM154.335 13.061h1.37v4.149h4.975v-4.149h1.37v10.121h-1.37v-4.82h-4.975v4.82h-1.37zM168.882 13.99q-1.49 0-2.372 1.112-.875 1.112-.875 3.03 0 1.911.875 3.023.881 1.112 2.372 1.112 1.492 0 2.36-1.112.874-1.112.874-3.023 0-1.918-.875-3.03-.867-1.112-2.359-1.112zm0-1.112q2.129 0 3.403 1.43 1.275 1.424 1.275 3.824 0 2.393-1.275 3.823-1.274 1.424-3.403 1.424-2.135 0-3.416-1.424-1.274-1.423-1.274-3.823t1.274-3.823q1.281-1.43 3.416-1.43zM175.702 13.061h1.37v8.969h4.927v1.152h-6.297zM184.806 14.187v7.87h1.654q2.094 0 3.063-.95.977-.948.977-2.995 0-2.034-.977-2.976-.969-.95-3.063-.95zm-1.37-1.126h2.813q2.942 0 4.318 1.227 1.376 1.22 1.376 3.824 0 2.616-1.382 3.843-1.383 1.227-4.312 1.227h-2.813z"/></g><g style="font-style:normal;font-weight:400;font-size:13.88268471px;line-height:1.25;font-family:sans-serif;letter-spacing:0;word-spacing:0;fill:#00f;fill-opacity:1;stroke:none;stroke-width:1" aria-label="=tg(β)&lt;1"><path style="fill:#00f;stroke-width:1" d="M108.295 34.567h8.69v1.14h-8.69zm0 2.766h8.69v1.153h-8.69zM120.998 31.124v2.156h2.57v.969h-2.57v4.121q0 .929.25 1.193.258.265 1.038.265h1.281v1.044h-1.281q-1.444 0-1.993-.536-.549-.542-.549-1.966V34.25h-.915v-.97h.915v-2.155zM130.203 36.987q0-1.355-.562-2.1-.556-.747-1.566-.747-1.003 0-1.566.746-.556.746-.556 2.101 0 1.35.556 2.095.563.746 1.566.746 1.01 0 1.566-.746.562-.746.562-2.095zm1.248 2.942q0 1.94-.861 2.881-.861.95-2.637.95-.658 0-1.24-.102-.583-.095-1.133-.299v-1.213q.55.298 1.085.44.536.143 1.091.143 1.227 0 1.837-.644.61-.637.61-1.932v-.617q-.386.671-.99 1.003-.602.333-1.443.333-1.396 0-2.25-1.065-.855-1.064-.855-2.82 0-1.762.854-2.826.855-1.064 2.25-1.064.842 0 1.445.332.603.332.99 1.003V33.28h1.247zM137.016 30.338q-.908 1.559-1.349 3.084-.44 1.525-.44 3.091 0 1.566.44 3.105.447 1.532 1.349 3.084h-1.085q-1.016-1.593-1.525-3.132-.501-1.539-.501-3.057 0-1.512.501-3.044.502-1.532 1.525-3.131zM140.683 40.404v3.355h-1.254V33.327q0-3.091 2.888-3.091 2.942 0 2.942 2.61 0 1.857-1.166 2.535 1.898.61 1.898 2.42 0 3.213-3.267 3.213-1.437 0-2.04-.61zm0-1.627q.753 1.173 2.088 1.173 1.952 0 1.952-2.129 0-1.911-3.145-1.762v-1.153q2.46 0 2.46-2.169 0-1.484-1.585-1.484-1.77 0-1.77 2.115zM148.1 30.338h1.084q1.017 1.6 1.518 3.131.509 1.532.509 3.044 0 1.518-.509 3.057-.501 1.539-1.518 3.132h-1.085q.902-1.552 1.342-3.084.448-1.54.448-3.105 0-1.566-.448-3.091-.44-1.525-1.342-3.084zM162.565 34.039l-6.996 2.488L162.565 39v1.233l-8.69-3.152v-1.125l8.69-3.152zM165.758 39.72h2.236v-7.722l-2.433.488V31.24l2.42-.488h1.37v8.968h2.236v1.153h-5.83z"/></g><g style="font-style:normal;font-weight:400;font-size:29.33333397px;line-height:1.25;font-family:sans-serif;letter-spacing:0;word-spacing:0;fill:#fff;fill-opacity:1;stroke:none" aria-label="0"><path d="M15.324 153.52q-2.234 0-3.366 2.207-1.117 2.191-1.117 6.602 0 4.398 1.117 6.603 1.132 2.192 3.366 2.192 2.249 0 3.366-2.192 1.132-2.205 1.132-6.603 0-4.411-1.132-6.602-1.117-2.206-3.366-2.206zm0-2.29q3.595 0 5.486 2.85 1.905 2.835 1.905 8.25 0 5.4-1.905 8.25-1.89 2.835-5.486 2.835-3.595 0-5.5-2.836-1.89-2.85-1.89-8.25 0-5.414 1.89-8.25 1.905-2.85 5.5-2.85z"/></g><g style="font-style:normal;font-weight:400;font-size:29.33333397px;line-height:1.25;font-family:sans-serif;letter-spacing:0;word-spacing:0;fill:#fff;fill-opacity:1;stroke:none" aria-label="1"><path d="M35.943 190.01h4.726v-16.313l-5.142 1.031v-2.635l5.114-1.032h2.893v18.95h4.726v2.434H35.943z"/></g><path d="M100 138.393a38.393 38.393 0 0 1-16.805-3.874" style="fill:none;fill-opacity:1;stroke:purple;stroke-width:1;stroke-linecap:round;stroke-linejoin:bevel;stroke-miterlimit:4;stroke-dasharray:none;stroke-dashoffset:0;stroke-opacity:1"/><g style="font-style:normal;font-weight:400;font-size:21.23579216px;line-height:1.25;font-family:sans-serif;letter-spacing:0;word-spacing:0;fill:purple;fill-opacity:1;stroke:none;stroke-width:1" aria-label="β"><path style="stroke-width:1" d="M86.467 157.32v5.132h-1.918v-15.958q0-4.728 4.417-4.728 4.5 0 4.5 3.992 0 2.84-1.783 3.878 2.903.933 2.903 3.701 0 4.915-4.998 4.915-2.198 0-3.121-.933zm0-2.49q1.15 1.794 3.194 1.794 2.986 0 2.986-3.255 0-2.925-4.811-2.696v-1.763q3.764 0 3.764-3.318 0-2.271-2.427-2.271-2.706 0-2.706 3.235z"/></g><path style="fill:none;fill-opacity:1;stroke:purple;stroke-width:1;stroke-linecap:round;stroke-linejoin:bevel;stroke-miterlimit:4;stroke-dasharray:none;stroke-dashoffset:0;stroke-opacity:1" d="M61.607 100a38.393 38.393 0 0 0 4.224 17.507"/><g style="font-style:normal;font-weight:400;font-size:21.23579216px;line-height:1.25;font-family:sans-serif;letter-spacing:0;word-spacing:0;fill:purple;fill-opacity:1;stroke:none;stroke-width:1" aria-label="β"><path style="stroke-width:1" d="M45.796 117.926v5.133h-1.918V107.1q0-4.729 4.417-4.729 4.5 0 4.5 3.993 0 2.84-1.783 3.878 2.903.933 2.903 3.701 0 4.915-4.998 4.915-2.198 0-3.12-.933zm0-2.489q1.151 1.794 3.194 1.794 2.986 0 2.986-3.256 0-2.924-4.811-2.696v-1.762q3.764 0 3.764-3.318 0-2.271-2.427-2.271-2.706 0-2.706 3.235z"/></g></svg>