<svg xmlns="http://www.w3.org/2000/svg" height="200" width="200"><defs><marker style="overflow:visible" id="b" refX="0" refY="0" orient="auto"><path transform="matrix(-.4 0 0 -.4 -4 0)" style="fill-rule:evenodd;stroke:#000;stroke-width:1pt;stroke-opacity:1;fill:#000;fill-opacity:1" d="m0 0 5-5-17.5 5L5 5 0 0z"/></marker><marker style="overflow:visible" id="a" refX="0" refY="0" orient="auto"><path transform="matrix(-.4 0 0 -.4 -4 0)" style="fill-rule:evenodd;stroke:#000;stroke-width:1pt;stroke-opacity:1;fill:#000;fill-opacity:1" d="m0 0 5-5-17.5 5L5 5 0 0z"/></marker></defs><rect rx="10.187" ry="9.633" y="130.098" x="2.72" height="42.247" width="95.28" style="fill:#4d4d4d;fill-opacity:1;stroke:none;stroke-width:2;stroke-linecap:round;stroke-linejoin:bevel;stroke-miterlimit:4;stroke-dasharray:none;stroke-dashoffset:0;stroke-opacity:1"/><rect style="fill:#e6e6e6;fill-opacity:1;stroke:none;stroke-width:2;stroke-linecap:round;stroke-linejoin:bevel;stroke-miterlimit:4;stroke-dasharray:none;stroke-dashoffset:0;stroke-opacity:1" width="95.28" height="42.247" x="1.222" y="128.9" ry="9.633" rx="10.187"/><path d="m100 100 100-50v99.98z" style="fill:#93ac9d;stroke:none;stroke-width:1px;stroke-linecap:butt;stroke-linejoin:miter;stroke-opacity:1"/><path style="fill:#deaa87;stroke:none;stroke-width:1px;stroke-linecap:butt;stroke-linejoin:miter;stroke-opacity:1" d="M100 100 150 0H50.02z"/><path style="fill:none;stroke:#000;stroke-width:1px;stroke-linecap:butt;stroke-linejoin:miter;stroke-opacity:1;marker-end:url(#a)" d="M100 200V0"/><path d="M0 100h200" style="fill:none;stroke:#000;stroke-width:1px;stroke-linecap:butt;stroke-linejoin:miter;stroke-opacity:1;marker-end:url(#b)"/><g style="font-style:normal;font-weight:400;font-size:29.33333397px;line-height:1.25;font-family:sans-serif;letter-spacing:0;word-spacing:0;fill:#fff;fill-opacity:1;stroke:none" aria-label="2"><path style="font-size:29.33333397px" d="M83.464 30.982h10.098v2.435H79.984v-2.435q1.647-1.705 4.483-4.57 2.85-2.878 3.58-3.709 1.39-1.561 1.934-2.635.559-1.089.559-2.135 0-1.704-1.203-2.778-1.189-1.074-3.108-1.074-1.36 0-2.88.472-1.503.473-3.222 1.433v-2.922q1.748-.702 3.266-1.06 1.518-.358 2.779-.358 3.322 0 5.299 1.661 1.977 1.662 1.977 4.44 0 1.318-.502 2.507-.487 1.174-1.79 2.778-.358.416-2.277 2.407-1.92 1.976-5.415 5.543z"/></g><g style="font-style:normal;font-weight:400;font-size:29.33333397px;line-height:1.25;font-family:sans-serif;letter-spacing:0;word-spacing:0;fill:#fff;fill-opacity:1;stroke:none" aria-label="3"><path style="font-size:29.33333397px" d="M185.103 114.83q2.077.443 3.237 1.847 1.174 1.403 1.174 3.466 0 3.165-2.177 4.898-2.177 1.733-6.187 1.733-1.347 0-2.779-.272-1.418-.257-2.936-.787v-2.793q1.203.701 2.635 1.06 1.432.358 2.994.358 2.721 0 4.139-1.075 1.432-1.074 1.432-3.122 0-1.89-1.332-2.95-1.317-1.075-3.68-1.075h-2.493v-2.377h2.607q2.134 0 3.265-.845 1.132-.86 1.132-2.464 0-1.647-1.174-2.52-1.16-.889-3.338-.889-1.189 0-2.55.258-1.36.258-2.993.802v-2.578q1.647-.458 3.08-.688 1.446-.229 2.721-.229 3.294 0 5.214 1.504 1.919 1.49 1.919 4.04 0 1.775-1.017 3.007-1.017 1.218-2.893 1.69z"/></g><path style="fill:none;fill-opacity:1;stroke:purple;stroke-width:1;stroke-linecap:round;stroke-linejoin:bevel;stroke-miterlimit:4;stroke-dasharray:none;stroke-dashoffset:0;stroke-opacity:1" d="M100 61.607a38.393 38.393 0 0 1 16.805 3.874M138.393 100a38.393 38.393 0 0 0-3.874-16.805"/><g style="font-style:normal;font-weight:400;font-size:21.23579216px;line-height:1.25;font-family:sans-serif;letter-spacing:0;word-spacing:0;fill:purple;fill-opacity:1;stroke:none;stroke-width:1" aria-label="α"><path style="stroke-width:1" d="m114.491 53.489-.456-2.395q-.467-2.458-2.312-2.458-1.39 0-2.022 1.14-.799 1.432-.799 3.319 0 2.281.778 3.37.788 1.11 2.043 1.11 1.39 0 2.136-2.21zm1.068-3.173 1.027-3.038h1.7l-2.125 6.294.414 2.27q.094.509.457.934.425.498.757.498h.912v1.617h-1.14q-.975 0-1.846-.87-.425-.436-.602-1.349-.477 1.151-1.451 2.053-.457.425-1.94.425-2.436 0-3.618-1.576-1.213-1.628-1.213-4.48 0-3.048 1.317-4.479 1.462-1.596 3.515-1.596 3.224 0 3.836 3.297z"/></g><g style="font-style:normal;font-weight:400;font-size:21.23579216px;line-height:1.25;font-family:sans-serif;letter-spacing:0;word-spacing:0;fill:purple;fill-opacity:1;stroke:none;stroke-width:1" aria-label="α"><path style="stroke-width:1" d="m148.079 88.844-.456-2.395q-.467-2.457-2.313-2.457-1.39 0-2.022 1.14-.798 1.431-.798 3.318 0 2.281.778 3.37.788 1.11 2.042 1.11 1.39 0 2.136-2.209zm1.068-3.173 1.026-3.038h1.7l-2.125 6.294.415 2.271q.093.508.456.933.425.498.757.498h.913v1.617h-1.141q-.975 0-1.846-.87-.425-.436-.601-1.348-.477 1.15-1.452 2.053-.456.425-1.939.425-2.437 0-3.619-1.576-1.213-1.628-1.213-4.48 0-3.048 1.317-4.48 1.462-1.596 3.515-1.596 3.225 0 3.837 3.297z"/></g><g style="font-style:normal;font-weight:400;font-size:14.61534119px;line-height:1.25;font-family:sans-serif;letter-spacing:0;word-spacing:0;fill:#00f;fill-opacity:1;stroke:none;stroke-width:2;stroke-miterlimit:4;stroke-dasharray:none" aria-label="THRESHOLD"><path style="fill:#00f;stroke:none;stroke-width:2;stroke-miterlimit:4;stroke-dasharray:none" d="M103.258 155.136h9.013v1.213h-3.782v9.442h-1.449v-9.442h-3.782zM113.663 155.136h1.441v4.367h5.239v-4.367h1.441v10.655h-1.441v-5.074h-5.239v5.074h-1.441zM129.706 160.795q.463.157.899.67.442.515.885 1.414l1.463 2.912h-1.549l-1.363-2.734q-.528-1.07-1.028-1.42-.492-.35-1.348-.35h-1.57v4.504h-1.442v-10.655h3.254q1.827 0 2.726.764.9.763.9 2.305 0 1.006-.472 1.67-.463.663-1.355.92zm-3.611-4.474v3.782h1.812q1.042 0 1.57-.478.535-.486.535-1.42 0-.935-.535-1.406-.528-.478-1.57-.478zM134.808 155.136h6.737v1.213h-5.295v3.154h5.074v1.214h-5.074v3.86h5.423v1.214h-6.865zM150.43 155.486v1.405q-.821-.392-1.549-.585-.728-.192-1.406-.192-1.177 0-1.82.456-.635.457-.635 1.3 0 .706.421 1.07.429.356 1.613.578l.87.178q1.614.307 2.377 1.085.77.77.77 2.07 0 1.548-1.041 2.347-1.035.8-3.04.8-.757 0-1.613-.172-.85-.171-1.763-.506v-1.485q.878.493 1.72.742.842.25 1.656.25 1.235 0 1.905-.485.671-.485.671-1.385 0-.785-.485-1.227-.478-.442-1.577-.664l-.878-.171q-1.613-.321-2.334-1.006-.72-.685-.72-1.906 0-1.413.992-2.226.999-.814 2.747-.814.75 0 1.527.136.778.135 1.592.407zM153.32 155.136h1.441v4.367H160v-4.367h1.441v10.655H160v-5.074h-5.239v5.074h-1.441zM168.635 156.114q-1.57 0-2.498 1.17-.92 1.17-.92 3.19 0 2.012.92 3.183.928 1.17 2.498 1.17 1.57 0 2.483-1.17.92-1.17.92-3.183 0-2.02-.92-3.19-.913-1.17-2.483-1.17zm0-1.17q2.24 0 3.582 1.505 1.342 1.499 1.342 4.025 0 2.52-1.342 4.025-1.342 1.499-3.582 1.499-2.248 0-3.597-1.5-1.342-1.498-1.342-4.024t1.342-4.025q1.349-1.506 3.597-1.506zM175.814 155.136h1.441v9.441h5.189v1.214h-6.63zM185.398 156.32v8.286h1.741q2.205 0 3.226-1 1.028-.998 1.028-3.153 0-2.141-1.028-3.133-1.02-1-3.226-1zm-1.442-1.184h2.962q3.097 0 4.546 1.292 1.449 1.284 1.449 4.025 0 2.754-1.456 4.046-1.456 1.292-4.539 1.292h-2.962z" transform="translate(-99.151 -20.164)"/></g><g style="font-style:normal;font-weight:400;font-size:14.61534119px;line-height:1.25;font-family:sans-serif;letter-spacing:0;word-spacing:0;fill:#00f;fill-opacity:1;stroke:none;stroke-width:2;stroke-miterlimit:4;stroke-dasharray:none" aria-label="=ctg(α)&gt;1"><path style="fill:#00f;stroke:none;stroke-width:2;stroke-miterlimit:4;stroke-dasharray:none" d="M104.85 177.777h9.148v1.199h-9.149zm0 2.912h9.148v1.213h-9.149zM122.676 176.728v1.227q-.556-.307-1.12-.456-.557-.157-1.128-.157-1.277 0-1.984.813-.706.807-.706 2.27 0 1.462.706 2.276.707.806 1.984.806.571 0 1.128-.15.564-.156 1.12-.463v1.213q-.55.257-1.142.385-.585.129-1.248.129-1.806 0-2.87-1.135-1.063-1.135-1.063-3.061 0-1.956 1.07-3.076 1.078-1.12 2.948-1.12.607 0 1.185.128.578.121 1.12.37zM126.259 174.152v2.269h2.704v1.02h-2.704v4.34q0 .977.264 1.255.27.279 1.092.279h1.348v1.099h-1.348q-1.52 0-2.098-.564-.579-.57-.579-2.07v-4.338h-.963v-1.021h.963v-2.27zM135.95 180.325q0-1.428-.592-2.213-.586-.785-1.649-.785-1.056 0-1.648.785-.586.785-.586 2.213 0 1.42.586 2.205.592.785 1.648.785 1.063 0 1.649-.785.592-.785.592-2.205zm1.313 3.097q0 2.04-.906 3.033-.907.999-2.776.999-.693 0-1.306-.107-.614-.1-1.192-.314v-1.278q.578.314 1.142.464.563.15 1.149.15 1.291 0 1.934-.678.642-.67.642-2.034v-.65q-.407.707-1.042 1.057t-1.52.35q-1.47 0-2.37-1.12-.899-1.121-.899-2.97 0-1.855.9-2.975.899-1.12 2.369-1.12.885 0 1.52.349.635.35 1.042 1.056v-1.213h1.313zM143.122 173.324q-.956 1.641-1.42 3.247-.464 1.606-.464 3.254 0 1.649.464 3.269.47 1.612 1.42 3.247h-1.142q-1.07-1.677-1.606-3.297-.528-1.62-.528-3.219 0-1.591.528-3.204.529-1.613 1.606-3.297zM150.33 180.696l-.314-1.649q-.321-1.691-1.592-1.691-.956 0-1.391.785-.55.985-.55 2.284 0 1.57.535 2.319.543.763 1.406.763.957 0 1.47-1.52zm.735-2.184.706-2.091h1.17l-1.462 4.332.285 1.563q.064.35.314.642.293.343.521.343h.628v1.113h-.785q-.67 0-1.27-.6-.293-.3-.414-.927-.328.792-1 1.413-.313.292-1.334.292-1.677 0-2.49-1.085-.835-1.12-.835-3.082 0-2.099.906-3.083 1.006-1.1 2.42-1.1 2.219 0 2.64 2.27zM155.097 173.324h1.142q1.07 1.684 1.598 3.297.535 1.613.535 3.204 0 1.599-.535 3.219-.528 1.62-1.598 3.297h-1.142q.949-1.635 1.413-3.247.47-1.62.47-3.269 0-1.648-.47-3.254-.464-1.606-1.413-3.247zM161.177 177.22v-1.299l9.149 3.319v1.185l-9.149 3.318v-1.299l7.35-2.605zM173.687 183.2h2.355v-8.128l-2.562.514v-1.313l2.548-.514h1.441v9.442h2.355v1.213h-6.137z" transform="translate(-99.151 -20.164)"/></g><path d="M100 61.607a38.393 38.393 0 0 0-16.805 3.874" style="fill:none;fill-opacity:1;stroke:purple;stroke-width:1;stroke-linecap:round;stroke-linejoin:bevel;stroke-miterlimit:4;stroke-dasharray:none;stroke-dashoffset:0;stroke-opacity:1"/><g style="font-style:normal;font-weight:400;font-size:21.23579216px;line-height:1.25;font-family:sans-serif;letter-spacing:0;word-spacing:0;fill:purple;fill-opacity:1;stroke:none;stroke-width:1"><path d="m114.491 53.489-.456-2.395q-.467-2.458-2.312-2.458-1.39 0-2.022 1.14-.799 1.432-.799 3.319 0 2.281.778 3.37.788 1.11 2.043 1.11 1.39 0 2.136-2.21zm1.068-3.173 1.027-3.038h1.7l-2.125 6.294.414 2.27q.094.509.457.934.425.498.757.498h.912v1.617h-1.14q-.975 0-1.846-.87-.425-.436-.602-1.349-.477 1.151-1.451 2.053-.457.425-1.94.425-2.436 0-3.618-1.576-1.213-1.628-1.213-4.48 0-3.048 1.317-4.479 1.462-1.596 3.515-1.596 3.224 0 3.836 3.297z" style="stroke-width:1" transform="translate(-22.472)" aria-label="α"/></g><path style="fill:none;fill-opacity:1;stroke:purple;stroke-width:1;stroke-linecap:round;stroke-linejoin:bevel;stroke-miterlimit:4;stroke-dasharray:none;stroke-dashoffset:0;stroke-opacity:1" d="M138.393 100a38.393 38.393 0 0 1-3.874 16.805"/><g style="font-style:normal;font-weight:400;font-size:21.23579216px;line-height:1.25;font-family:sans-serif;letter-spacing:0;word-spacing:0;fill:purple;fill-opacity:1;stroke:none;stroke-width:1"><path d="m148.079 88.844-.456-2.395q-.467-2.457-2.313-2.457-1.39 0-2.022 1.14-.798 1.431-.798 3.318 0 2.281.778 3.37.788 1.11 2.042 1.11 1.39 0 2.136-2.209zm1.068-3.173 1.026-3.038h1.7l-2.125 6.294.415 2.271q.093.508.456.933.425.498.757.498h.913v1.617h-1.141q-.975 0-1.846-.87-.425-.436-.601-1.348-.477 1.15-1.452 2.053-.456.425-1.939.425-2.437 0-3.619-1.576-1.213-1.628-1.213-4.48 0-3.048 1.317-4.48 1.462-1.596 3.515-1.596 3.225 0 3.837 3.297z" style="stroke-width:1" transform="translate(0 22.771)" aria-label="α"/></g></svg>